<svg width="81" height="67" viewBox="0 0 81 67" fill="none" xmlns="http://www.w3.org/2000/svg">
<path d="M30.0187 5.54199H60.0373C63.7063 5.54199 66.7082 8.0358 66.7082 11.0838V55.4182C66.7082 58.4662 63.7063 60.96 60.0373 60.96H30.0187C26.3497 60.96 23.3478 58.4662 23.3478 55.4182V52.6473C23.3478 51.9124 23.6992 51.2076 24.3248 50.688C24.9503 50.1683 25.7986 49.8764 26.6832 49.8764C27.5679 49.8764 28.4162 50.1683 29.0417 50.688C29.6672 51.2076 30.0187 51.9124 30.0187 52.6473V55.4182H60.0373V11.0838H30.0187V13.8547C30.0187 14.5896 29.6672 15.2944 29.0417 15.814C28.4162 16.3337 27.5679 16.6256 26.6832 16.6256C25.7986 16.6256 24.9503 16.3337 24.3248 15.814C23.6992 15.2944 23.3478 14.5896 23.3478 13.8547V11.0838C23.3478 8.0358 26.3497 5.54199 30.0187 5.54199Z" fill="white"/>
<path d="M36.0057 45.1518C37.3065 46.2325 39.4079 46.2325 40.7087 45.1518L52.6761 35.2098C53.3014 34.6902 53.6527 33.9855 53.6527 33.2508C53.6527 32.516 53.3014 31.8114 52.6761 31.2918L40.7087 21.3498C40.0746 20.8737 39.2447 20.6182 38.3903 20.6361C37.536 20.6541 36.7226 20.944 36.1183 21.446C35.514 21.948 35.165 22.6238 35.1434 23.3335C35.1218 24.0433 35.4294 24.7328 36.0024 25.2595L42.2596 30.4799H13.3416C12.457 30.4799 11.6087 30.7718 10.9831 31.2915C10.3576 31.8111 10.0062 32.5159 10.0062 33.2508C10.0062 33.9857 10.3576 34.6905 10.9831 35.2101C11.6087 35.7297 12.457 36.0217 13.3416 36.0217H42.2596L36.0024 41.2421C35.3798 41.7613 35.0305 42.4646 35.0311 43.1975C35.0317 43.9304 35.3822 44.6332 36.0057 45.1518Z" fill="white"/>
</svg>
