<svg width="49" height="57" viewBox="0 0 49 57" fill="none" xmlns="http://www.w3.org/2000/svg">
<path d="M38 5.99984H29.52C28.4 2.9065 25.4666 0.666504 22 0.666504C18.5333 0.666504 15.6 2.9065 14.48 5.99984H5.99996C3.06663 5.99984 0.666626 8.39984 0.666626 11.3332V51.3332C0.666626 54.2665 3.06663 56.6665 5.99996 56.6665H22.2933C20.7156 55.1352 19.4322 53.3275 18.5066 51.3332H5.99996V11.3332H11.3333V13.9998C11.3333 16.9332 13.7333 19.3332 16.6666 19.3332H27.3333C30.2666 19.3332 32.6666 16.9332 32.6666 13.9998V11.3332H38V24.8798C39.8933 25.1465 41.68 25.7065 43.3333 26.4798V11.3332C43.3333 8.39984 40.9333 5.99984 38 5.99984ZM22 11.3332C20.5333 11.3332 19.3333 10.1332 19.3333 8.6665C19.3333 7.19984 20.5333 5.99984 22 5.99984C23.4666 5.99984 24.6666 7.19984 24.6666 8.6665C24.6666 10.1332 23.4666 11.3332 22 11.3332ZM35.3333 29.9998C27.9733 29.9998 22 35.9732 22 43.3332C22 50.6932 27.9733 56.6665 35.3333 56.6665C42.6933 56.6665 48.6666 50.6932 48.6666 43.3332C48.6666 35.9732 42.6933 29.9998 35.3333 29.9998ZM38.7733 48.6665L34.3733 44.2665C34.1245 44.0187 33.9811 43.6843 33.9733 43.3332V36.6932C33.9733 35.9465 34.56 35.3598 35.3066 35.3598C36.0533 35.3598 36.64 35.9465 36.64 36.6932V42.7998L40.64 46.7998C40.7646 46.922 40.8637 47.0676 40.9317 47.2282C40.9997 47.3889 41.0352 47.5615 41.036 47.7359C41.0369 47.9104 41.0032 48.0833 40.9369 48.2447C40.8705 48.406 40.7728 48.5526 40.6494 48.676C40.5261 48.7993 40.3795 48.897 40.2181 48.9634C40.0568 49.0297 39.8839 49.0635 39.7094 49.0626C39.5349 49.0617 39.3624 49.0262 39.2017 48.9583C39.041 48.8903 38.8954 48.7911 38.7733 48.6665Z" fill="white"/>
</svg>
